<svg width="82" height="80" viewBox="0 0 82 80" fill="none" xmlns="http://www.w3.org/2000/svg">
  <rect x="3.5" y="19.5" width="75" height="43" stroke="black" stroke-width="7" />
  <mask id="path-2-inside-1_27_58" fill="white">
    <path d="M63 21C63 15.4305 60.6821 10.089 56.5563 6.15076C52.4305 2.21249 46.8348 4.20489e-07 41 0C35.1652 -4.20489e-07 29.5695 2.21249 25.4437 6.15076C21.3179 10.089 19 15.4305 19 21L41 21H63Z" />
  </mask>
  <path d="M63 21C63 15.4305 60.6821 10.089 56.5563 6.15076C52.4305 2.21249 46.8348 4.20489e-07 41 0C35.1652 -4.20489e-07 29.5695 2.21249 25.4437 6.15076C21.3179 10.089 19 15.4305 19 21L41 21H63Z" stroke="black" stroke-width="14" mask="url(#path-2-inside-1_27_58)" />
  <line x1="22" y1="75.5" x2="60" y2="75.5" stroke="black" stroke-width="7" />
  <line x1="40.5151" y1="62.0035" x2="40.5" y2="77.0035" stroke="black" stroke-width="7" />
  <path d="M69.2364 63.9887C71.9192 68.9024 73.3134 74.1392 73.3892 79.4607" stroke="black" stroke-width="7" />
  <path d="M11.7912 63.9887C9.10841 68.9024 7.71414 74.1392 7.63843 79.4607" stroke="black" stroke-width="7" />
</svg>