<svg width="829" height="369" viewBox="0 0 829 369" fill="none" xmlns="http://www.w3.org/2000/svg">
<path d="M126 150.739C126 123.533 97.5 49.2611 76 0C54 48.2759 26 123.533 26 150.739C26 177.945 48.3858 200 76 200C103.614 200 126 177.945 126 150.739Z" fill="#F37023"/>
<path d="M0.999996 113C-0.483198 112.911 2.48259 112.901 0.999996 113C3.19519 130.5 6 151 14.5 170C25.5127 194.616 39 208 61 223C61 262.5 61 333 61 333H32C32 333 51.239 302.053 51.5 280C51.7697 257.213 32 225 32 225C32 225 13.0992 192.792 7 170C1.21381 148.378 1 132.5 0.999996 113Z" fill="#F37023"/>
<path d="M0.999996 113C-0.483198 112.911 2.48259 112.901 0.999996 113C3.19519 130.5 6 151 14.5 170C25.5127 194.616 39 208 61 223C61 262.5 61 333 61 333H32C32 333 51.239 302.053 51.5 280C51.7697 257.213 32 225 32 225C32 225 13.0992 192.792 7 170C1.21381 148.378 1 132.5 0.999996 113Z" fill="#F37023"/>
<path d="M151 113.07C152.483 112.981 149.517 112.972 151 113.07C148.805 130.57 146 151.07 137.5 170.07C126.487 194.687 113 208.07 91 223.07C91 262.57 91 333.07 91 333.07H120C120 333.07 100.761 302.123 100.5 280.07C100.23 257.283 120 225.07 120 225.07C120 225.07 138.901 192.862 145 170.07C150.786 148.448 151 132.57 151 113.07Z" fill="#F37023"/>
<path d="M151 113.07C152.483 112.981 149.517 112.972 151 113.07C148.805 130.57 146 151.07 137.5 170.07C126.487 194.687 113 208.07 91 223.07C91 262.57 91 333.07 91 333.07H120C120 333.07 100.761 302.123 100.5 280.07C100.23 257.283 120 225.07 120 225.07C120 225.07 138.901 192.862 145 170.07C150.786 148.448 151 132.57 151 113.07Z" fill="#F37023"/>
<path d="M169.928 213V145.8H191.816C196.168 145.8 200.008 146.664 203.336 148.392C206.728 150.12 209.352 152.52 211.208 155.592C213.128 158.664 214.088 162.184 214.088 166.152C214.088 170.12 213.064 173.64 211.016 176.712C208.968 179.784 206.184 182.216 202.664 184.008C199.144 185.736 195.176 186.6 190.76 186.6H178.088V213H169.928ZM207.848 213L191.72 185.448L198.152 181.224L216.776 213H207.848ZM178.088 179.112H192.968C195.4 179.112 197.576 178.568 199.496 177.48C201.416 176.328 202.952 174.792 204.104 172.872C205.32 170.888 205.928 168.648 205.928 166.152C205.928 162.312 204.584 159.208 201.896 156.84C199.272 154.408 195.848 153.192 191.624 153.192H178.088V179.112Z" fill="#F37023"/>
<path d="M230.022 213V145.8H269.766V153.192H238.182V174.888H266.982V182.184H238.182V205.608H269.958V213H230.022Z" fill="#F37023"/>
<path d="M308.338 214.152C304.626 214.152 301.33 213.768 298.45 213C295.57 212.168 293.074 211.048 290.962 209.64C288.85 208.168 287.122 206.568 285.778 204.84C284.434 203.048 283.442 201.16 282.802 199.176L290.578 196.488C291.538 199.304 293.458 201.768 296.338 203.88C299.282 205.928 302.866 206.952 307.09 206.952C312.274 206.952 316.338 205.928 319.282 203.88C322.226 201.832 323.698 199.112 323.698 195.72C323.698 192.584 322.386 190.056 319.762 188.136C317.138 186.152 313.682 184.616 309.394 183.528L302.002 181.608C298.994 180.84 296.21 179.72 293.65 178.248C291.154 176.712 289.138 174.792 287.602 172.488C286.13 170.12 285.394 167.304 285.394 164.04C285.394 157.96 287.346 153.224 291.25 149.832C295.218 146.376 300.914 144.648 308.338 144.648C312.754 144.648 316.562 145.384 319.762 146.856C322.962 148.264 325.554 150.088 327.538 152.328C329.586 154.504 331.026 156.872 331.858 159.432L324.178 162.12C322.962 158.92 320.914 156.424 318.034 154.632C315.154 152.776 311.666 151.848 307.57 151.848C303.282 151.848 299.858 152.904 297.298 155.016C294.802 157.064 293.554 159.88 293.554 163.464C293.554 166.536 294.546 168.904 296.53 170.568C298.514 172.168 301.106 173.352 304.306 174.12L311.698 175.944C318.226 177.48 323.218 180.04 326.674 183.624C330.194 187.144 331.954 190.952 331.954 195.048C331.954 198.568 331.058 201.8 329.266 204.744C327.474 207.624 324.818 209.928 321.298 211.656C317.842 213.32 313.522 214.152 308.338 214.152Z" fill="#F37023"/>
<path d="M359.339 213V153.192H337.931V145.8H388.811V153.192H367.403V213H359.339Z" fill="#F37023"/>
<path d="M427.38 214.152C420.916 214.152 415.188 212.68 410.196 209.736C405.204 206.792 401.3 202.696 398.484 197.448C395.668 192.2 394.26 186.184 394.26 179.4C394.26 172.552 395.636 166.536 398.388 161.352C401.204 156.104 405.076 152.008 410.004 149.064C414.932 146.12 420.628 144.648 427.092 144.648C433.556 144.648 439.252 146.152 444.18 149.16C449.172 152.104 453.044 156.2 455.796 161.448C458.548 166.632 459.924 172.616 459.924 179.4C459.924 186.184 458.548 192.2 455.796 197.448C453.044 202.696 449.204 206.792 444.276 209.736C439.412 212.68 433.78 214.152 427.38 214.152ZM427.38 206.76C432.18 206.76 436.404 205.608 440.052 203.304C443.7 200.936 446.548 197.704 448.596 193.608C450.708 189.512 451.764 184.776 451.764 179.4C451.764 174.088 450.708 169.384 448.596 165.288C446.484 161.128 443.572 157.896 439.86 155.592C436.212 153.224 431.956 152.04 427.092 152.04C422.292 152.04 418.036 153.224 414.324 155.592C410.612 157.896 407.7 161.128 405.588 165.288C403.476 169.384 402.42 174.088 402.42 179.4C402.42 184.776 403.476 189.512 405.588 193.608C407.7 197.704 410.644 200.936 414.42 203.304C418.196 205.608 422.516 206.76 427.38 206.76Z" fill="#F37023"/>
<path d="M473.303 213V145.8H495.191C499.543 145.8 503.383 146.664 506.711 148.392C510.103 150.12 512.727 152.52 514.583 155.592C516.503 158.664 517.463 162.184 517.463 166.152C517.463 170.12 516.439 173.64 514.391 176.712C512.343 179.784 509.559 182.216 506.039 184.008C502.519 185.736 498.551 186.6 494.135 186.6H481.463V213H473.303ZM511.223 213L495.095 185.448L501.527 181.224L520.151 213H511.223ZM481.463 179.112H496.343C498.775 179.112 500.951 178.568 502.871 177.48C504.791 176.328 506.327 174.792 507.479 172.872C508.695 170.888 509.303 168.648 509.303 166.152C509.303 162.312 507.959 159.208 505.271 156.84C502.647 154.408 499.223 153.192 494.999 153.192H481.463V179.112Z" fill="#F37023"/>
<path d="M533.397 213V145.8H573.141V153.192H541.557V174.888H570.357V182.184H541.557V205.608H573.333V213H533.397Z" fill="#F37023"/>
<path d="M212.552 333V265.8H225.704V333H212.552ZM168.296 333V265.704H181.448V333H168.296ZM178.088 304.68V292.584H218.792V304.68H178.088Z" fill="#F37023"/>
<path d="M271.016 334.152C264.232 334.152 258.216 332.68 252.968 329.736C247.784 326.728 243.72 322.632 240.776 317.448C237.832 312.2 236.36 306.216 236.36 299.496C236.36 292.648 237.832 286.632 240.776 281.448C243.72 276.2 247.752 272.104 252.872 269.16C258.056 266.216 264.008 264.744 270.728 264.744C277.512 264.744 283.464 266.248 288.584 269.256C293.768 272.2 297.832 276.296 300.776 281.544C303.72 286.728 305.192 292.712 305.192 299.496C305.192 306.216 303.72 312.2 300.776 317.448C297.896 322.632 293.864 326.728 288.68 329.736C283.56 332.68 277.672 334.152 271.016 334.152ZM271.016 322.152C275.112 322.152 278.696 321.192 281.768 319.272C284.904 317.288 287.336 314.6 289.064 311.208C290.856 307.816 291.752 303.912 291.752 299.496C291.752 295.016 290.856 291.08 289.064 287.688C287.272 284.296 284.808 281.64 281.672 279.72C278.536 277.736 274.888 276.744 270.728 276.744C266.696 276.744 263.08 277.736 259.88 279.72C256.744 281.64 254.28 284.296 252.488 287.688C250.696 291.08 249.8 295.016 249.8 299.496C249.8 303.912 250.696 307.816 252.488 311.208C254.28 314.6 256.776 317.288 259.976 319.272C263.176 321.192 266.856 322.152 271.016 322.152Z" fill="#F37023"/>
<path d="M315.858 333V265.8H329.01V321H358.578V333H315.858Z" fill="#F37023"/>
<path d="M367.421 333V265.8H380.573V333H367.421Z" fill="#F37023"/>
<path d="M417.731 334.152C414.339 334.152 411.171 333.736 408.227 332.904C405.283 332.072 402.659 330.92 400.355 329.448C398.051 327.912 396.131 326.216 394.595 324.36C393.123 322.504 392.163 320.552 391.715 318.504L404.579 314.664C405.411 316.84 406.883 318.728 408.995 320.328C411.107 321.864 413.763 322.664 416.963 322.728C420.355 322.792 423.107 322.056 425.219 320.52C427.395 318.984 428.483 317 428.483 314.568C428.483 312.456 427.619 310.696 425.891 309.288C424.227 307.816 421.923 306.696 418.979 305.928L410.243 303.624C406.979 302.792 404.099 301.544 401.603 299.88C399.107 298.152 397.155 296.04 395.747 293.544C394.339 291.048 393.635 288.136 393.635 284.808C393.635 278.472 395.715 273.544 399.875 270.024C404.099 266.44 410.051 264.648 417.731 264.648C422.019 264.648 425.763 265.288 428.963 266.568C432.227 267.784 434.947 269.544 437.123 271.848C439.299 274.152 440.963 276.872 442.115 280.008L429.347 283.944C428.579 281.768 427.171 279.912 425.123 278.376C423.075 276.84 420.483 276.072 417.347 276.072C414.147 276.072 411.619 276.808 409.763 278.28C407.971 279.752 407.075 281.832 407.075 284.52C407.075 286.632 407.779 288.296 409.187 289.512C410.659 290.728 412.643 291.656 415.139 292.296L423.971 294.504C429.731 295.912 434.211 298.44 437.411 302.088C440.611 305.736 442.211 309.8 442.211 314.28C442.211 318.248 441.251 321.736 439.331 324.744C437.411 327.688 434.627 329.992 430.979 331.656C427.331 333.32 422.915 334.152 417.731 334.152Z" fill="#F37023"/>
<path d="M467.691 333V277.8H447.531V265.8H500.907V277.8H480.844V333H467.691Z" fill="#F37023"/>
<path d="M509.546 333V265.8H522.698V333H509.546Z" fill="#F37023"/>
<path d="M566.96 334.152C560.432 334.152 554.64 332.68 549.584 329.736C544.528 326.728 540.56 322.632 537.68 317.448C534.8 312.2 533.36 306.184 533.36 299.4C533.36 292.616 534.8 286.632 537.68 281.448C540.56 276.2 544.496 272.104 549.488 269.16C554.544 266.152 560.336 264.648 566.864 264.648C571.472 264.648 575.76 265.48 579.728 267.144C583.696 268.744 587.152 271.016 590.096 273.96C593.104 276.84 595.408 280.168 597.008 283.944L584.816 288.456C583.728 286.088 582.288 284.04 580.496 282.312C578.704 280.52 576.656 279.144 574.352 278.184C572.048 277.16 569.552 276.648 566.864 276.648C562.96 276.648 559.472 277.64 556.4 279.624C553.392 281.544 551.024 284.2 549.296 287.592C547.632 290.984 546.8 294.92 546.8 299.4C546.8 303.88 547.664 307.848 549.392 311.304C551.12 314.696 553.52 317.384 556.592 319.368C559.664 321.288 563.184 322.248 567.152 322.248C569.904 322.248 572.4 321.736 574.64 320.712C576.944 319.624 578.96 318.152 580.688 316.296C582.48 314.44 583.92 312.296 585.008 309.864L597.2 314.28C595.6 318.184 593.296 321.64 590.288 324.648C587.344 327.656 583.888 329.992 579.92 331.656C575.952 333.32 571.632 334.152 566.96 334.152Z" fill="#F37023"/>
<path d="M653.419 333L627.69 265.8H640.843L667.338 333H653.419ZM600.33 333L626.826 265.8H639.979L614.25 333H600.33ZM612.81 318.216V306.6H654.955V318.216H612.81Z" fill="#F37023"/>
<path d="M675.39 333V265.8H688.542V321H718.11V333H675.39Z" fill="#F37023"/>
<path d="M726.952 333V265.8H740.104V321H769.672V333H726.952Z" fill="#F37023"/>
<path d="M803.873 305.256L791.489 302.088L813.089 265.8H828.065L803.873 305.256ZM791.105 333V300.744H804.257V333H791.105ZM791.489 305.256L767.297 265.8H782.273L803.873 302.088L791.489 305.256Z" fill="#F37023"/>
<path d="M675.697 368V347.7H687.703V349.933H678.162V356.487H686.862V358.691H678.162V365.767H687.761V368H675.697Z" fill="#F37023"/>
<path d="M699.355 368.348C698.234 368.348 697.238 368.232 696.368 368C695.498 367.749 694.744 367.41 694.106 366.985C693.468 366.54 692.946 366.057 692.54 365.535C692.134 364.994 691.834 364.423 691.641 363.824L693.99 363.012C694.28 363.863 694.86 364.607 695.73 365.245C696.619 365.864 697.702 366.173 698.978 366.173C700.544 366.173 701.772 365.864 702.661 365.245C703.55 364.626 703.995 363.805 703.995 362.78C703.995 361.833 703.599 361.069 702.806 360.489C702.013 359.89 700.969 359.426 699.674 359.097L697.441 358.517C696.532 358.285 695.691 357.947 694.918 357.502C694.164 357.038 693.555 356.458 693.091 355.762C692.646 355.047 692.424 354.196 692.424 353.21C692.424 351.373 693.014 349.943 694.193 348.918C695.392 347.874 697.112 347.352 699.355 347.352C700.689 347.352 701.839 347.574 702.806 348.019C703.773 348.444 704.556 348.995 705.155 349.672C705.774 350.329 706.209 351.045 706.46 351.818L704.14 352.63C703.773 351.663 703.154 350.909 702.284 350.368C701.414 349.807 700.36 349.527 699.123 349.527C697.828 349.527 696.793 349.846 696.02 350.484C695.266 351.103 694.889 351.953 694.889 353.036C694.889 353.964 695.189 354.679 695.788 355.182C696.387 355.665 697.17 356.023 698.137 356.255L700.37 356.806C702.342 357.27 703.85 358.043 704.894 359.126C705.957 360.189 706.489 361.34 706.489 362.577C706.489 363.64 706.218 364.617 705.677 365.506C705.136 366.376 704.333 367.072 703.27 367.594C702.226 368.097 700.921 368.348 699.355 368.348Z" fill="#F37023"/>
<path d="M714.762 368V349.933H708.295V347.7H723.665V349.933H717.198V368H714.762Z" fill="#F37023"/>
<path d="M726.993 368.406C726.548 368.406 726.161 368.251 725.833 367.942C725.523 367.613 725.369 367.236 725.369 366.811C725.369 366.366 725.523 365.989 725.833 365.68C726.161 365.351 726.548 365.187 726.993 365.187C727.437 365.187 727.814 365.351 728.124 365.68C728.433 365.989 728.588 366.366 728.588 366.811C728.588 367.236 728.433 367.613 728.124 367.942C727.814 368.251 727.437 368.406 726.993 368.406Z" fill="#F37023"/>
<path d="M738.827 368V365.97C738.827 365.332 738.953 364.704 739.204 364.085C739.475 363.447 739.851 362.819 740.335 362.2C740.837 361.581 741.446 361.001 742.162 360.46L746.367 357.299C746.869 356.951 747.304 356.555 747.672 356.11C748.058 355.646 748.358 355.172 748.571 354.689C748.783 354.186 748.89 353.703 748.89 353.239C748.89 352.562 748.726 351.953 748.397 351.412C748.068 350.851 747.604 350.407 747.005 350.078C746.405 349.749 745.7 349.585 744.888 349.585C744.095 349.585 743.399 349.74 742.8 350.049C742.2 350.339 741.707 350.735 741.321 351.238C740.934 351.721 740.654 352.243 740.48 352.804L737.986 352.311C738.218 351.441 738.634 350.629 739.233 349.875C739.852 349.121 740.635 348.512 741.582 348.048C742.529 347.584 743.583 347.352 744.743 347.352C746.096 347.352 747.266 347.613 748.252 348.135C749.238 348.638 750.002 349.334 750.543 350.223C751.104 351.093 751.384 352.089 751.384 353.21C751.384 354.273 751.094 355.279 750.514 356.226C749.934 357.173 749.093 358.092 747.991 358.981L744.018 361.997C743.244 362.577 742.645 363.186 742.22 363.824C741.814 364.462 741.582 365.129 741.524 365.825H751.674V368H738.827Z" fill="#F37023"/>
<path d="M762.653 368.348C761.106 368.348 759.734 367.903 758.535 367.014C757.336 366.105 756.399 364.868 755.722 363.302C755.045 361.717 754.707 359.899 754.707 357.85C754.707 355.801 755.045 353.993 755.722 352.427C756.399 350.842 757.327 349.604 758.506 348.715C759.705 347.806 761.087 347.352 762.653 347.352C764.219 347.352 765.592 347.806 766.771 348.715C767.97 349.604 768.907 350.842 769.584 352.427C770.28 353.993 770.628 355.801 770.628 357.85C770.628 359.899 770.29 361.717 769.613 363.302C768.936 364.868 767.999 366.105 766.8 367.014C765.601 367.903 764.219 368.348 762.653 368.348ZM762.653 366.144C763.736 366.144 764.693 365.786 765.524 365.071C766.375 364.356 767.032 363.379 767.496 362.142C767.979 360.905 768.221 359.474 768.221 357.85C768.221 356.226 767.979 354.795 767.496 353.558C767.032 352.301 766.375 351.325 765.524 350.629C764.693 349.914 763.736 349.556 762.653 349.556C761.57 349.556 760.613 349.914 759.782 350.629C758.951 351.325 758.293 352.301 757.81 353.558C757.346 354.795 757.114 356.226 757.114 357.85C757.114 359.474 757.346 360.905 757.81 362.142C758.293 363.379 758.951 364.356 759.782 365.071C760.633 365.786 761.59 366.144 762.653 366.144Z" fill="#F37023"/>
<path d="M773.604 368V365.97C773.604 365.332 773.73 364.704 773.981 364.085C774.252 363.447 774.629 362.819 775.112 362.2C775.615 361.581 776.224 361.001 776.939 360.46L781.144 357.299C781.647 356.951 782.082 356.555 782.449 356.11C782.836 355.646 783.135 355.172 783.348 354.689C783.561 354.186 783.667 353.703 783.667 353.239C783.667 352.562 783.503 351.953 783.174 351.412C782.846 350.851 782.381 350.407 781.782 350.078C781.183 349.749 780.477 349.585 779.665 349.585C778.872 349.585 778.176 349.74 777.577 350.049C776.978 350.339 776.485 350.735 776.098 351.238C775.711 351.721 775.431 352.243 775.257 352.804L772.763 352.311C772.995 351.441 773.411 350.629 774.01 349.875C774.629 349.121 775.412 348.512 776.359 348.048C777.307 347.584 778.36 347.352 779.52 347.352C780.873 347.352 782.043 347.613 783.029 348.135C784.015 348.638 784.779 349.334 785.32 350.223C785.881 351.093 786.161 352.089 786.161 353.21C786.161 354.273 785.871 355.279 785.291 356.226C784.711 357.173 783.87 358.092 782.768 358.981L778.795 361.997C778.022 362.577 777.423 363.186 776.997 363.824C776.591 364.462 776.359 365.129 776.301 365.825H786.451V368H773.604Z" fill="#F37023"/>
<path d="M797.43 368.348C795.884 368.348 794.511 367.903 793.312 367.014C792.114 366.105 791.176 364.868 790.499 363.302C789.823 361.717 789.484 359.899 789.484 357.85C789.484 355.801 789.823 353.993 790.499 352.427C791.176 350.842 792.104 349.604 793.283 348.715C794.482 347.806 795.864 347.352 797.43 347.352C798.996 347.352 800.369 347.806 801.548 348.715C802.747 349.604 803.685 350.842 804.361 352.427C805.057 353.993 805.405 355.801 805.405 357.85C805.405 359.899 805.067 361.717 804.39 363.302C803.714 364.868 802.776 366.105 801.577 367.014C800.379 367.903 798.996 368.348 797.43 368.348ZM797.43 366.144C798.513 366.144 799.47 365.786 800.301 365.071C801.152 364.356 801.809 363.379 802.273 362.142C802.757 360.905 802.998 359.474 802.998 357.85C802.998 356.226 802.757 354.795 802.273 353.558C801.809 352.301 801.152 351.325 800.301 350.629C799.47 349.914 798.513 349.556 797.43 349.556C796.348 349.556 795.391 349.914 794.559 350.629C793.728 351.325 793.071 352.301 792.587 353.558C792.123 354.795 791.891 356.226 791.891 357.85C791.891 359.474 792.123 360.905 792.587 362.142C793.071 363.379 793.728 364.356 794.559 365.071C795.41 365.786 796.367 366.144 797.43 366.144Z" fill="#F37023"/>
</svg>
