<svg width="72" height="58" viewBox="0 0 72 58" fill="none" xmlns="http://www.w3.org/2000/svg">
<path d="M0 20.8459C0 19.7413 0.89543 18.8459 2 18.8459H14.7884C15.2611 18.8459 15.7185 18.6785 16.0795 18.3734L35.7089 1.78175C37.009 0.682902 39 1.60698 39 3.30921V55.6904C39 57.3926 37.0088 58.3167 35.7088 57.2177L16.0795 40.6236C15.7185 40.3184 15.261 40.151 14.7883 40.151H2C0.895429 40.151 0 39.2555 0 38.151V20.8459Z" fill="#FFFBEB"/>
<path d="M43 56C43 57.1046 43.8966 58.0072 44.9986 57.9311C51.9597 57.4505 58.5406 54.4716 63.5061 49.5061C68.9447 44.0675 72 36.6913 72 29C72 21.3087 68.9447 13.9325 63.5061 8.49391C58.5406 3.52836 51.9597 0.549497 44.9986 0.0688935C43.8967 -0.00718632 43 0.89543 43 2V7.74077C43 8.84534 43.8979 9.73 44.9965 9.84448C49.3707 10.3002 53.4802 12.2436 56.6183 15.3817C60.2301 18.9935 62.2592 23.8921 62.2592 29C62.2592 34.1079 60.2301 39.0065 56.6183 42.6183C53.4802 45.7564 49.3707 47.6998 44.9965 48.1555C43.8979 48.27 43 49.1547 43 50.2592V56Z" fill="#FFFBEB"/>
<path d="M43.5 41C43.5 42.1046 44.3997 43.0142 45.4938 42.8623C48.6029 42.4308 51.5081 40.998 53.753 38.753C56.4723 36.0338 58 32.3456 58 28.5C58 24.6544 56.4723 20.9662 53.7531 18.247C51.5081 16.002 48.6029 14.5692 45.4938 14.1377C44.3997 13.9858 43.5 14.8954 43.5 16L43.5 41Z" fill="#FFFBEB"/>
</svg>
